<?xml version="1.0" encoding="UTF-8"?>
<svg version="1.1" xmlns="http://www.w3.org/2000/svg" width="8000" height="1938">
<path d="M0 0 C0.67385742 0.32178223 1.34771484 0.64356445 2.04199219 0.97509766 C6.7397419 3.23194779 11.38488394 5.57887991 16 8 C16.64114746 8.33580078 17.28229492 8.67160156 17.94287109 9.01757812 C49.11042246 25.52127023 78.26858249 49.14217223 100 77 C100.78890625 77.98355469 101.5778125 78.96710938 102.390625 79.98046875 C147.98630017 137.32239819 167.92042024 213.81884708 168.203125 286.2265625 C168.21013931 287.44112625 168.21715363 288.65569 168.22438049 289.90705872 C168.24179841 293.81307734 168.24823487 297.71894394 168.25 301.625 C168.25044186 302.29281116 168.25088371 302.96062233 168.25133896 303.6486702 C168.25868424 324.84671061 167.78302349 345.84824563 165.25 366.91217041 C164.99130152 369.07264375 164.74310001 371.2341569 164.49609375 373.39599609 C155.85466519 448.11470369 136.64938859 522.64889425 105 591 C104.53658203 592.00514648 104.07316406 593.01029297 103.59570312 594.04589844 C83.85238144 636.6335162 59.69764361 676.58863248 30 713 C29.29488281 713.87914062 28.58976562 714.75828125 27.86328125 715.6640625 C23.27306948 721.35175945 18.51426525 726.83051758 13.5546875 732.19921875 C12.22683583 733.65498273 10.90245581 735.11496713 9.62768555 736.61743164 C4.07877673 743.14162951 -1.98936983 749.14027717 -8.05151367 755.18188477 C-9.93328274 757.05829475 -11.80964738 758.93998969 -13.68554688 760.82226562 C-19.62041576 766.76077303 -25.56767802 772.5952998 -32 778 C-33.13036654 778.98400209 -34.25929737 779.96965611 -35.38671875 780.95703125 C-42.46047456 787.094041 -49.65058189 793.00385308 -57.15087891 798.61474609 C-58.45303383 799.59024478 -59.75189415 800.57014906 -61.04833984 801.55322266 C-89.52832113 823.13784933 -120.09828361 840.98233731 -152 857 C-152.84304688 857.42619629 -153.68609375 857.85239258 -154.5546875 858.29150391 C-225.71860464 894.03819377 -307.05979446 911.76156481 -586.8125 892.6875 C-634.44182968 876.57249701 -677.70551912 851.87626607 -714 817 C-714.48839355 816.53352051 -714.97678711 816.06704102 -715.47998047 815.58642578 C-722.21246521 809.12532101 -728.23377852 802.32729667 -734 795 C-734.88307744 793.90671354 -735.76723606 792.8142997 -736.65234375 791.72265625 C-785.34793099 731.28956652 -803.27912523 653.61086917 -803.1875 577.3125 C-803.18689575 576.37424377 -803.1862915 575.43598755 -803.18566895 574.46929932 C-803.03835815 489.61648686 -783.78780763 404.56073197 -734.38134766 283.92285156 C-732.94285 280.87907391 -731.52403384 277.82654954 -730.10546875 274.7734375 C-723.79506652 261.29878109 -716.88534112 248.29599442 -709.40869141 235.43408203 C-708.19615484 233.33893653 -707.00285302 231.23542045 -705.82421875 229.12109375 C-689.92496234 200.71310559 -670.87316109 173.95092195 -650 149 C-649.50290527 148.40380859 -649.00581055 147.80761719 -648.49365234 147.19335938 C-637.63902123 134.21787283 -626.0599951 121.9837141 -614.125 110 C-613.3405249 109.21085205 -612.5560498 108.4217041 -611.74780273 107.60864258 C-606.99337357 102.86732074 -602.10634738 98.3585445 -597 94 C-595.99070767 93.12260026 -594.98157954 92.24501158 -593.97265625 91.3671875 C-523.95352536 31.40449555 -437.80921382 -5.2607143 -246 -38 C-245.01209473 -38.05639648 -244.02418945 -38.11279297 -243.00634766 -38.17089844 C-161.71617691 -42.61614641 -74.26324725 -35.71949947 0 0 Z M-429 222 C-432.14113788 225.56316151 -435.08386824 229.25136733 -438 233 C-438.47518066 233.59876953 -438.95036133 234.19753906 -439.43994141 234.81445312 C-452.16728356 250.85307162 -463.19770395 267.80776658 -472.85009766 285.86035156 C-473.9595767 287.92478348 -475.09182385 289.9749807 -476.23046875 292.0234375 C-514.21853802 361.03229519 -533.36307942 443.930247 -540 522 C-540.13261262 523.40757093 -540.26539264 524.81512611 -540.3984375 526.22265625 C-544.74871757 580.24843168 -538.77320629 640.62951864 -502.8203125 683.60546875 C-475.92217748 714.47610414 -437.64970123 727.62492089 -397.64453125 730.6875 C-332.40672182 734.78012323 -271.46188496 716.17822114 -222.25 672.875 C-211.74197836 663.28873464 -201.64895776 653.31483616 -193 642 C-192.55092285 641.4220166 -192.1018457 640.8440332 -191.63916016 640.24853516 C-140.1341672 573.89525594 -114.82144827 489.84095497 -93.75 322.875 C-93.74932526 322.00415771 -93.74865051 321.13331543 -93.74795532 320.23608398 C-93.80877016 270.4065664 -102.58054664 216.48439573 -139.0703125 179.92578125 C-156.98877995 163.0982906 -180.99654269 153.80980191 -204.6875 148.6875 C-205.36127686 148.54030518 -206.03505371 148.39311035 -206.72924805 148.24145508 C-221.90657662 145.2187241 -237.19904829 144.62202824 -252.625 144.6875 C-253.54409149 144.68965515 -254.46318298 144.6918103 -255.41012573 144.69403076 C-323.51291009 144.94955375 -382.66900309 172.47664363 -429 222 Z " fill="#000000" transform="translate(6156,509)"/>
<path d="M0 0 C54.23368381 -0.02301509 108.46736712 -0.0405731 162.70105488 -0.05106533 C169.14038425 -0.05231566 175.57971361 -0.05361002 182.01904297 -0.05493164 C183.30070653 -0.05519395 184.5823701 -0.05545626 185.90287195 -0.05572652 C206.50860739 -0.06004815 227.11433996 -0.06791587 247.72007371 -0.0771528 C268.94878589 -0.08658783 290.17749659 -0.09207617 311.40621078 -0.09408849 C323.29404521 -0.09532362 335.18187368 -0.09825853 347.06970596 -0.10573006 C433.08098262 -0.15812414 433.08098262 -0.15812414 469.99951172 0.45532227 C471.22462786 0.47559475 472.449744 0.49586723 473.71198487 0.51675403 C618.20651068 3.00544826 618.20651068 3.00544826 666 43 C666.76957031 43.6290625 667.53914063 44.258125 668.33203125 44.90625 C673.05777634 48.88202024 677.07609264 53.24169855 681 58 C681.43860352 58.52094238 681.87720703 59.04188477 682.32910156 59.57861328 C715.75923971 99.37054026 724.10631336 148.4051841 720.12036133 199.24804688 C714.70515887 258.92263323 696.35713247 320.83784602 654.54296875 365.24609375 C652.75122756 367.18645863 651.0535644 369.11861744 649.3828125 371.15625 C646.23713527 374.91043528 642.75323226 377.86853815 639 381 C638.46503906 381.45793945 637.93007812 381.91587891 637.37890625 382.38769531 C588.42135582 424.24800785 510.02641921 458 445 458 C445 458.99 445 459.98 445 461 C445.9794458 461.06993164 446.9588916 461.13986328 447.96801758 461.21191406 C548.52934853 468.48210682 548.52934853 468.48210682 582.33984375 505.56640625 C593.52583938 518.94236648 599.39398317 534.20760916 603.25 551 C603.40106201 551.64984863 603.55212402 552.29969727 603.70776367 552.96923828 C607.34937205 570.05378342 607.3996261 587.23856464 607.375 604.625 C607.37512085 605.94390228 607.3752417 607.26280457 607.37536621 608.62167358 C607.35380865 638.22793868 605.49372497 667.65018397 603.28503418 697.17095947 C602.81681632 703.46081974 602.36574428 709.75190293 601.9140625 716.04296875 C601.78340141 717.85983688 601.78340141 717.85983688 601.65010071 719.71340942 C601.47690791 722.12200047 601.30383631 724.53060023 601.13088989 726.93920898 C600.96075087 729.30674883 600.79024098 731.67426205 600.61935425 734.04174805 C597.45398028 777.92452407 595.06419113 821.9883058 596.3125 866 C596.34706299 867.24620117 596.38162598 868.49240234 596.41723633 869.77636719 C596.88748589 882.88833482 598.02939907 895.89688744 599 909 C508.58 909 418.16 909 325 909 C324.31450178 905.57250888 323.87071048 903.02326318 323.83886719 899.6484375 C323.82941071 898.8111763 323.81995422 897.9739151 323.81021118 897.11128235 C323.80581024 896.20830917 323.8014093 895.305336 323.796875 894.375 C323.78981537 893.41800705 323.78275574 892.4610141 323.77548218 891.47502136 C323.47040161 837.41371598 329.3552881 784.02602573 335.09765625 730.3359375 C335.23150758 729.08379015 335.23150758 729.08379015 335.36806297 727.80634689 C336.24975739 719.5598395 337.13338145 711.31356431 338.0297699 703.06863976 C341.94946708 668.74800176 341.94946708 668.74800176 343.31567383 634.26025391 C343.31245593 631.96861443 343.3363838 629.67820651 343.36132812 627.38671875 C343.44266455 608.27468825 340.18698892 589.69872487 327 575 C317.87604542 566.74877151 306.0712816 562.45796449 294.25 559.75 C293.59708984 559.59893799 292.94417969 559.44787598 292.27148438 559.29223633 C274.67208518 555.60907595 256.81760265 555.66405751 238.9241271 555.59528303 C235.32869582 555.57942921 231.73334374 555.55271278 228.13796997 555.5272522 C221.35998362 555.48085158 214.58198171 555.44392291 207.80391991 555.41057932 C200.07445853 555.37208063 192.34507746 555.32274531 184.61568427 555.27259517 C168.74384794 555.16985273 152.87196617 555.08040878 137 555 C136.88292379 555.80610435 136.76584759 556.61220869 136.64522362 557.44274044 C135.54552654 564.82546954 134.22937641 572.11324277 132.64697266 579.40649414 C132.41795635 580.476912 132.18894005 581.54732986 131.95298386 582.65018463 C131.19349761 586.19593336 130.4287468 589.74052524 129.6640625 593.28515625 C129.11557395 595.84155132 128.56745766 598.39802628 128.01968384 600.95457458 C126.84285337 606.44496622 125.66354408 611.93482024 124.48254395 617.42431641 C122.60113108 626.1700216 120.7251451 634.916886 118.85058594 643.6640625 C118.69214297 644.40339327 118.53370001 645.14272403 118.37045574 645.90445876 C117.56144908 649.6796027 116.75253932 653.45476739 115.94369507 657.22994614 C115.28557052 660.30157142 114.62725675 663.37315605 113.96878052 666.44470596 C107.12825231 698.35378081 100.34794877 730.27549906 93.58453685 762.20099652 C91.96429259 769.84897429 90.34314892 777.49676135 88.72192383 785.14453125 C88.50715312 786.15767596 88.50715312 786.15767596 88.28804362 787.19128823 C87.5750455 790.55473455 86.86203621 793.91817851 86.14901543 797.28162003 C85.59180669 799.91008098 85.03462385 802.53854743 84.47746468 805.16701889 C79.77483009 827.35206522 75.06901671 849.53642855 70.34436035 871.71679688 C69.6649362 874.90656985 68.9863153 878.09651188 68.30847168 881.28662109 C67.5487418 884.8619421 66.78741955 888.43691971 66.0246563 892.01159477 C65.62804176 893.87216286 65.2330642 895.73307966 64.83815002 897.5940094 C64.60708054 898.67488327 64.37601105 899.75575714 64.13793945 900.86938477 C63.94037552 901.79695084 63.74281158 902.72451691 63.53926086 903.68019104 C63 906 63 906 62 909 C-21.82 909 -105.64 909 -192 909 C-190.71201492 901.27208951 -189.36632032 893.63442023 -187.73876953 885.98242188 C-187.40983294 884.42070975 -187.40983294 884.42070975 -187.07425117 882.82744789 C-186.34621202 879.37402846 -185.614532 875.92139134 -184.8828125 872.46875 C-184.3573556 869.98025849 -183.83211311 867.49172171 -183.30706787 865.00314331 C-182.02984054 858.95246252 -180.7501959 852.90229733 -179.469419 846.85236704 C-178.4167252 841.8794423 -177.36523158 836.90626505 -176.31451416 831.93292236 C-176.1635573 831.21840515 -176.01260044 830.50388793 -175.85706913 829.76771867 C-175.55016001 828.31502383 -175.24325209 826.86232874 -174.93634534 825.4096334 C-163.64514583 771.96792737 -152.30644935 718.53626081 -140.96442032 665.10532379 C-135.05797683 637.2805005 -129.16182567 609.45350066 -123.26799393 581.62600327 C-114.62279375 540.80859187 -105.96983648 499.99283122 -97.31071472 459.17837143 C-86.95123521 410.34933231 -76.59762854 361.51905195 -66.25 312.6875 C-66.08451802 311.90657344 -65.91903604 311.12564689 -65.74853945 310.32105589 C-62.72366818 296.04635034 -59.69887108 281.77162907 -56.67415231 267.4968912 C-51.9693915 245.29343491 -47.26414613 223.09008135 -42.5585022 200.88681221 C-41.49219857 195.85552794 -40.42590753 190.82424099 -39.35961914 185.79295349 C-39.0062841 184.12574164 -38.65294904 182.45852979 -38.29961395 180.79131794 C-37.77288842 178.30596302 -37.24616291 175.82060809 -36.7194376 173.33525312 C-34.60600505 163.36302085 -32.49254102 153.39079525 -30.37900543 143.41858482 C-23.29368864 109.98757085 -16.21120896 76.55595721 -9.13178015 43.12369585 C-8.09644996 38.23442279 -7.06109449 33.34515509 -6.02574158 28.45588684 C-4.01713727 18.97059626 -2.0085594 9.48530009 0 0 Z M219 169 C216.20476836 179.85453854 213.7108758 190.73841087 211.4440918 201.71459961 C211.11031378 203.31862569 210.7762493 204.92259219 210.44192505 206.52650452 C209.54425131 210.836966 208.65048191 215.14822842 207.75742698 219.45964885 C206.81154867 224.02239367 205.86184727 228.58434269 204.91255188 233.14637756 C203.11229024 241.80062925 201.31517812 250.45553156 199.51932603 259.11069924 C196.90641279 271.7030998 194.28908605 284.29458308 191.67137623 296.88598728 C191.47658403 297.82296465 191.28179182 298.75994202 191.08109683 299.72531265 C190.69143637 301.59963295 190.301768 303.4739516 189.91209155 305.34826857 C188.79385915 310.72743457 187.67661881 316.10680529 186.56033093 321.48637515 C185.85917777 324.86496511 185.15753747 328.24345377 184.45575964 331.62191403 C184.11720149 333.25213682 183.77881414 334.88239509 183.44060552 336.51269042 C181.63187547 345.22957927 179.80477935 353.94198347 177.93399048 362.64578247 C177.68569484 363.8038207 177.68569484 363.8038207 177.43238312 364.98525363 C176.65041241 368.63207679 175.8647697 372.27801434 175.07130718 375.9223547 C174.79796456 377.19410329 174.52462194 378.46585188 174.24299622 379.77613831 C174.00192044 380.88687493 173.76084467 381.99761156 173.51246357 383.14200687 C172.8823373 386.17227209 172.8823373 386.17227209 173 390 C192.68186896 390.04697276 212.36372636 390.08211153 232.04563999 390.10362434 C241.18677724 390.11388398 250.32787942 390.12784108 259.46899414 390.15087891 C267.44762621 390.1709772 275.42623284 390.18375489 283.40488952 390.18817699 C287.61930396 390.19075692 291.83364572 390.19670614 296.04803658 390.21146011 C342.37208522 390.36707085 386.25945966 387.37062783 421.125 353.3125 C447.89168007 326.22565482 463.05496578 286.59404694 463.375 248.75 C463.21784883 230.36688503 458.8117601 214.398444 447 200 C446.47921875 199.36449219 445.9584375 198.72898437 445.421875 198.07421875 C424.01409501 174.55809679 385.70963922 170.64260591 356 169 C351.27726843 168.87712623 346.55858713 168.87267413 341.83447266 168.88647461 C340.48267112 168.88675765 339.13086944 168.88659647 337.77906799 168.8860321 C334.15809777 168.88574869 330.53716161 168.89157077 326.91619921 168.89860606 C323.11392426 168.90491639 319.31164827 168.90544941 315.5093689 168.90663147 C308.33101115 168.90972237 301.15266888 168.91790513 293.97431791 168.92798096 C285.79277259 168.93921222 277.61122647 168.94467011 269.42967534 168.94967639 C252.61977454 168.96008996 235.80988926 168.97764539 219 169 Z " fill="#000000" transform="translate(1564,495)"/>
<path d="M0 0 C107.25 0 214.5 0 325 0 C328.30256935 6.60513871 331.40013165 13.08878991 334.1953125 19.89453125 C334.58029907 20.82297852 334.96528564 21.75142578 335.36193848 22.70800781 C336.18855992 24.70229912 337.01361169 26.69724166 337.83721924 28.69277954 C340.06084493 34.07963634 342.29674304 39.4613999 344.53125 44.84375 C344.98827301 45.94539993 345.44529602 47.04704987 345.91616821 48.18208313 C350.43985903 59.07836578 355.02635636 69.94768573 359.625 80.8125 C365.79815128 95.40530885 371.94812645 110.00745946 378.0625 124.625 C378.43249115 125.50944794 378.8024823 126.39389587 379.1836853 127.30514526 C382.16192765 134.42515173 385.13832619 141.54592858 388.11462402 148.66674805 C390.72137452 154.9031981 393.32901359 161.13927582 395.9375 167.375 C396.49259247 168.70224594 396.49259247 168.70224594 397.05889893 170.05630493 C401.2499731 180.07532475 405.45447214 190.08846998 409.6875 200.08984375 C410.27443634 201.476661 410.27443634 201.476661 410.87322998 202.89149475 C411.66592464 204.76432698 412.45862892 206.63715514 413.25134277 208.50997925 C413.64277466 209.4348111 414.03420654 210.35964294 414.4375 211.3125 C414.82474243 212.22742218 415.21198486 213.14234436 415.61096191 214.08499146 C424.88100257 235.99856567 433.95172373 257.99411435 443 280 C451.09492326 271.93718604 458.65761943 263.54445131 465.8203125 254.6484375 C467.97757399 252.02724881 470.21311 249.50845719 472.5 247 C475.59555196 243.60401318 478.55151207 240.13828469 481.4375 236.5625 C485.29825137 231.788597 489.37437075 227.26611572 493.53125 222.75 C495.94378104 220.06262366 498.2325621 217.31034556 500.5 214.5 C503.55348679 210.71539666 506.70668301 207.07792463 510 203.5 C514.11378909 199.0301488 517.97087297 194.40955107 521.78515625 189.68359375 C524.66480887 186.19449084 527.70693876 182.87003079 530.75390625 179.52734375 C533.06187598 176.93037607 535.25555863 174.26595987 537.4375 171.5625 C541.29825137 166.788597 545.37437075 162.26611572 549.53125 157.75 C551.94378104 155.06262366 554.2325621 152.31034556 556.5 149.5 C559.55348679 145.71539666 562.70668301 142.07792463 566 138.5 C570.11378909 134.0301488 573.97087297 129.40955107 577.78515625 124.68359375 C580.66480887 121.19449084 583.70693876 117.87003079 586.75390625 114.52734375 C589.06187598 111.93037607 591.25555863 109.26595987 593.4375 106.5625 C597.29825137 101.788597 601.37437075 97.26611572 605.53125 92.75 C607.94378104 90.06262366 610.2325621 87.31034556 612.5 84.5 C615.55348679 80.71539666 618.70668301 77.07792463 622 73.5 C626.11378909 69.0301488 629.97087297 64.40955107 633.78515625 59.68359375 C636.66480887 56.19449084 639.70693876 52.87003079 642.75390625 49.52734375 C645.06187598 46.93037607 647.25555863 44.26595987 649.4375 41.5625 C653.29825137 36.788597 657.37437075 32.26611572 661.53125 27.75 C664.71961378 24.1984049 667.6969467 20.49630142 670.69140625 16.78125 C673.97078495 12.83045874 677.44007211 9.07391297 680.93359375 5.3125 C683.11369637 2.98197309 683.11369637 2.98197309 685 0 C687.10788548 -0.37259549 687.10788548 -0.37259549 689.77513313 -0.36914349 C690.78929995 -0.37511663 691.80346676 -0.38108978 692.8483659 -0.38724393 C693.97091523 -0.3785054 695.09346455 -0.36976688 696.25003052 -0.36076355 C697.43596955 -0.36332682 698.62190859 -0.3658901 699.84378517 -0.36853105 C703.14592027 -0.37263133 706.44752685 -0.36320617 709.74959826 -0.34819686 C713.30651536 -0.33528022 716.86341518 -0.33962285 720.42034912 -0.34190369 C726.58636496 -0.3434792 732.7522858 -0.33404104 738.91827774 -0.31719017 C747.83332728 -0.29284229 756.74833074 -0.28499923 765.66340993 -0.2812262 C780.12638138 -0.27465508 794.58930217 -0.25467606 809.05224609 -0.22631836 C823.10432684 -0.19879484 837.15639384 -0.17755292 851.20849609 -0.16479492 C852.507051 -0.16361267 852.507051 -0.16361267 853.83183934 -0.16240653 C858.17467865 -0.15849151 862.51751805 -0.15470036 866.86035752 -0.15097082 C902.9069408 -0.11985437 938.95346646 -0.06700065 975 0 C973.36349654 4.44965445 971.43368612 6.90708093 968.01953125 10.23828125 C967.52845383 10.72274216 967.0373764 11.20720306 966.53141785 11.7063446 C964.96543073 13.24904417 963.38965541 14.78122723 961.8125 16.3125 C959.75264842 18.3255149 957.69719393 20.34293746 955.64453125 22.36328125 C955.14490875 22.85422272 954.64528625 23.34516418 954.13052368 23.85098267 C950.82867089 27.11750535 947.74749058 30.50320875 944.73706055 34.03588867 C940.42738394 38.90888211 935.66153495 43.37261252 931.02734375 47.93359375 C926.7652762 52.1546141 922.69341441 56.43968391 918.78710938 60.99023438 C914.64943836 65.6434185 910.10991768 69.92548362 905.671875 74.2890625 C902.158686 77.76640264 898.72274736 81.25002899 895.5 85 C890.86197988 90.39677457 885.74247097 95.30354364 880.671875 100.2890625 C877.16907073 103.75612387 873.74236279 107.22804602 870.53125 110.96875 C865.68703971 116.60544631 860.32068928 121.72387138 855.02734375 126.93359375 C850.7652762 131.1546141 846.69341441 135.43968391 842.78710938 139.99023438 C838.64943836 144.6434185 834.10991768 148.92548362 829.671875 153.2890625 C826.158686 156.76640264 822.72274736 160.25002899 819.5 164 C814.86197988 169.39677457 809.74247097 174.30354364 804.671875 179.2890625 C801.16907073 182.75612387 797.74236279 186.22804602 794.53125 189.96875 C789.68703971 195.60544631 784.32068928 200.72387138 779.02734375 205.93359375 C774.7652762 210.1546141 770.69341441 214.43968391 766.78710938 218.99023438 C762.64943836 223.6434185 758.10991768 227.92548362 753.671875 232.2890625 C750.158686 235.76640264 746.72274736 239.25002899 743.5 243 C738.86197988 248.39677457 733.74247097 253.30354364 728.671875 258.2890625 C725.158686 261.76640264 721.72274736 265.25002899 718.5 269 C713.86197988 274.39677457 708.74247097 279.30354364 703.671875 284.2890625 C700.16907073 287.75612387 696.74236279 291.22804602 693.53125 294.96875 C688.68703971 300.60544631 683.32068928 305.72387138 678.02734375 310.93359375 C673.7652762 315.1546141 669.69341441 319.43968391 665.78710938 323.99023438 C661.64943836 328.6434185 657.10991768 332.92548362 652.671875 337.2890625 C649.158686 340.76640264 645.72274736 344.25002899 642.5 348 C637.86197988 353.39677457 632.74247097 358.30354364 627.671875 363.2890625 C624.16907073 366.75612387 620.74236279 370.22804602 617.53125 373.96875 C612.68703971 379.60544631 607.32068928 384.72387138 602.02734375 389.93359375 C597.7652762 394.1546141 593.69341441 398.43968391 589.78710938 402.99023438 C585.64943836 407.6434185 581.10991768 411.92548362 576.671875 416.2890625 C571.89165459 421.02050515 567.36374865 425.88273578 563 431 C568.69940118 443.16031077 574.54947006 455.23265943 580.57877731 467.23271942 C581.9455484 469.95314468 583.3095686 472.6749353 584.67300415 475.39703369 C588.05778853 482.15344347 591.4469753 488.90764224 594.83612061 495.66186523 C597.71366699 501.39694574 600.58941443 507.13292193 603.46297073 512.87000275 C604.78313203 515.50401641 606.10576276 518.13677879 607.42855835 520.76947021 C611.6904735 529.26785613 615.87061679 537.79725073 619.94384766 546.38769531 C627.62195574 562.5453332 635.69911812 578.50703824 643.71512985 594.49872208 C646.00721232 599.0727441 648.29659015 603.64811939 650.58618164 608.22338867 C656.38838493 619.8167961 662.19399822 631.40849451 668 643 C674.2729467 655.52374679 680.54525676 668.04781019 686.81363201 680.57384586 C689.08007929 685.10262389 691.34736191 689.63097934 693.61672974 694.15829468 C709.7101175 726.26477598 709.7101175 726.26477598 716.80872059 741.26298141 C723.1916865 754.69121981 729.9349023 767.94523044 736.60831261 781.23065948 C739.18719245 786.36496804 741.76190084 791.50136164 744.33589172 796.63812256 C751.64517378 811.22355077 758.95814664 825.80712122 766.27905273 840.38671875 C770.3447268 848.4836027 774.40614707 856.58260522 778.46280318 864.68401122 C781.02125547 869.79282153 783.58493826 874.8989612 786.15249956 880.0031991 C787.73945698 883.1611593 789.32141232 886.32160447 790.9019146 889.48279953 C791.63675188 890.95004507 792.3736619 892.41625456 793.11275864 893.8813591 C794.1183211 895.87540536 795.11648669 897.87298274 796.11283875 899.87164307 C796.67375056 900.9894025 797.23466238 902.10716194 797.81257153 903.25879288 C799 906 799 906 799 909 C692.41 909 585.82 909 476 909 C433 802 433 802 419 767 C416.13809484 759.87103239 413.27595918 752.74219561 410.40905762 745.615242 C409.14070174 742.46211286 407.87279473 739.3088035 406.60498047 736.15545654 C404.7902118 731.64174992 402.97533165 727.12808815 401.16033936 722.61447144 C377.46993072 663.69883246 377.46993072 663.69883246 367 637.515625 C366.49550764 636.25401267 366.49550764 636.25401267 365.98082352 634.96691322 C362.88928774 627.23498155 359.799638 619.50229886 356.71297836 611.76841927 C355.62934619 609.05358069 354.54513467 606.33897369 353.46084595 603.62439728 C352.73469293 601.80559422 352.0095414 599.98639141 351.28442383 598.16717529 C350.64935913 596.57706635 350.64935913 596.57706635 350.00146484 594.95483398 C349.63596527 594.03846664 349.2704657 593.1220993 348.89389038 592.17796326 C348.03397453 590.00618353 348.03397453 590.00618353 347 588 C338.65210004 597.66757641 338.65210004 597.66757641 330.5 607.5 C327.06791987 611.7279248 323.55448829 615.8752789 320 620 C315.68065728 625.01314773 311.44902723 630.08537515 307.27734375 635.22265625 C304.25580056 638.90759143 301.16964049 642.53568321 298.08349609 646.16650391 C295.20442157 649.55973475 292.36788508 652.9827672 289.5625 656.4375 C285.60556582 661.30049424 281.53564058 666.05700203 277.44384766 670.80615234 C273.64836633 675.22031766 269.94722087 679.70333198 266.27734375 684.22265625 C263.25580056 687.90759143 260.16964049 691.53568321 257.08349609 695.16650391 C254.20442157 698.55973475 251.36788508 701.9827672 248.5625 705.4375 C244.60556582 710.30049424 240.53564058 715.05700203 236.44384766 719.80615234 C232.64836633 724.22031766 228.94722087 728.70333198 225.27734375 733.22265625 C222.25580056 736.90759143 219.16964049 740.53568321 216.08349609 744.16650391 C213.20442157 747.55973475 210.36788508 750.9827672 207.5625 754.4375 C203.60556582 759.30049424 199.53564058 764.05700203 195.44384766 768.80615234 C191.64836633 773.22031766 187.94722087 777.70333198 184.27734375 782.22265625 C181.25580056 785.90759143 178.16964049 789.53568321 175.08349609 793.16650391 C172.20442157 796.55973475 169.36788508 799.9827672 166.5625 803.4375 C162.60556582 808.30049424 158.53564058 813.05700203 154.44384766 817.80615234 C150.64836633 822.22031766 146.94722087 826.70333198 143.27734375 831.22265625 C140.71795946 834.34396367 138.11406209 837.4245003 135.5 840.5 C132.12716411 844.46903543 128.78823355 848.46017021 125.5 852.5 C119.95807902 859.30413786 114.26691077 865.97975878 108.58398438 872.66601562 C103.10810019 879.11135096 97.68374884 885.58952588 92.34375 892.1484375 C89.59059272 895.49811219 86.80103901 898.81534171 84 902.125 C83.27780273 902.97868164 83.27780273 902.97868164 82.54101562 903.84960938 C79.13539567 907.86460433 79.13539567 907.86460433 78 909 C76.42051483 909.09701001 74.83667181 909.12371638 73.25421047 909.12304783 C72.22113433 909.12503888 71.18805819 909.12702993 70.12367672 909.12908131 C68.97486886 909.12616847 67.82606101 909.12325563 66.6424408 909.12025452 C64.82806191 909.12153615 64.82806191 909.12153615 62.97702891 909.12284368 C59.60440101 909.1242119 56.23183042 909.12106431 52.85920942 909.11606562 C49.22797288 909.11176452 45.59673825 909.1132073 41.96549988 909.1139679 C35.66908787 909.11449335 29.37268619 909.11134434 23.07627678 909.10573006 C13.97262158 909.09761792 4.8689714 909.09500013 -4.23468702 909.09374207 C-19.00322192 909.09155109 -33.7717513 909.08488979 -48.5402832 909.07543945 C-62.89021782 909.0662665 -77.24015094 909.0591851 -91.59008789 909.05493164 C-92.91591984 909.05453756 -92.91591984 909.05453756 -94.26853628 909.05413551 C-98.70255072 909.05283051 -103.13656518 909.05156679 -107.57057965 909.05032361 C-144.38039032 909.03994959 -181.19019473 909.02233005 -218 909 C-217.03989178 907.87644521 -216.07929845 906.75330496 -215.11849976 905.63034058 C-214.58362127 905.00484755 -214.04874279 904.37935452 -213.49765587 903.73490715 C-211.86660224 901.84547003 -210.19245143 900.00798725 -208.4765625 898.1953125 C-207.85652344 897.53853516 -207.23648438 896.88175781 -206.59765625 896.20507812 C-205.94667969 895.51865234 -205.29570312 894.83222656 -204.625 894.125 C-203.20047863 892.61722738 -201.77600068 891.10941372 -200.3515625 889.6015625 C-199.6287207 888.8374707 -198.90587891 888.07337891 -198.16113281 887.28613281 C-194.76787039 883.69660396 -191.38420411 880.09806643 -188 876.5 C-186.6667175 875.08328549 -185.33338404 873.66661894 -184 872.25 C-183.34 871.54875 -182.68 870.8475 -182 870.125 C-153.33333333 839.66666667 -124.66666667 809.20833333 -96 778.75 C-95.00891235 777.6969165 -95.00891235 777.6969165 -93.99780273 776.62255859 C-92.67193592 775.21389599 -91.34592809 773.80536612 -90.01977539 772.39697266 C-86.57100261 768.73395086 -83.12512282 765.06826679 -79.68359375 761.3984375 C-78.97267578 760.64111328 -78.26175781 759.88378906 -77.52929688 759.10351562 C-76.18202091 757.6681824 -74.83559911 756.23204669 -73.49023438 754.79492188 C-70.45536943 751.56344081 -67.39212104 748.37365039 -64.24609375 745.25 C-61.93236423 742.95218691 -59.72381738 740.62359212 -57.625 738.125 C-55.03365795 735.1153247 -52.32745217 732.28911384 -49.5 729.5 C-46.71378859 726.7514401 -44.04691608 723.97140209 -41.5 721 C-38.24835372 717.20641267 -34.74286906 713.72607353 -31.1875 710.21875 C-29.20279658 708.20569368 -27.33903084 706.14553597 -25.5 704 C-22.24835372 700.20641267 -18.74286906 696.72607353 -15.1875 693.21875 C-13.20279658 691.20569368 -11.33903084 689.14553597 -9.5 687 C-6.24835372 683.20641267 -2.74286906 679.72607353 0.8125 676.21875 C2.79720342 674.20569368 4.66096916 672.14553597 6.5 670 C9.75164628 666.20641267 13.25713094 662.72607353 16.8125 659.21875 C18.79720342 657.20569368 20.66096916 655.14553597 22.5 653 C25.75164628 649.20641267 29.25713094 645.72607353 32.8125 642.21875 C34.79720342 640.20569368 36.66096916 638.14553597 38.5 636 C41.75164628 632.20641267 45.25713094 628.72607353 48.8125 625.21875 C50.79720342 623.20569368 52.66096916 621.14553597 54.5 619 C57.75164628 615.20641267 61.25713094 611.72607353 64.8125 608.21875 C66.79720342 606.20569368 68.66096916 604.14553597 70.5 602 C73.75164628 598.20641267 77.25713094 594.72607353 80.8125 591.21875 C82.79720342 589.20569368 84.66096916 587.14553597 86.5 585 C89.75164628 581.20641267 93.25713094 577.72607353 96.8125 574.21875 C98.79720342 572.20569368 100.66096916 570.14553597 102.5 568 C105.04691608 565.02859791 107.71378859 562.2485599 110.5 559.5 C113.26560408 556.77170593 115.91287031 554.01483166 118.4375 551.0625 C121.9446944 546.96941697 125.75725158 543.22775296 129.58984375 539.44140625 C132.26854532 536.72797273 134.74608118 533.89222977 137.22265625 530.99609375 C139.94977223 527.93333273 142.89404637 525.09776507 145.8125 522.21875 C147.79720342 520.20569368 149.66096916 518.14553597 151.5 516 C154.75164628 512.20641267 158.25713094 508.72607353 161.8125 505.21875 C163.79720342 503.20569368 165.66096916 501.14553597 167.5 499 C170.75164628 495.20641267 174.25713094 491.72607353 177.8125 488.21875 C179.79720342 486.20569368 181.66096916 484.14553597 183.5 482 C186.75164628 478.20641267 190.25713094 474.72607353 193.8125 471.21875 C195.79720342 469.20569368 197.66096916 467.14553597 199.5 465 C202.74924673 461.20921215 206.25186032 457.73121576 209.8046875 454.2265625 C212.43301588 451.5608202 214.86783483 448.76724628 217.2890625 445.9140625 C219.62460086 443.30124561 222.19334853 440.96625087 224.8125 438.640625 C225.204375 438.09921875 225.59625 437.5578125 226 437 C225.51118567 434.04010986 224.40751108 431.56881202 223.06640625 428.90234375 C222.47206787 427.71547974 222.47206787 427.71547974 221.86572266 426.50463867 C221.43565918 425.65748291 221.0055957 424.81032715 220.5625 423.9375 C219.89033447 422.60392456 219.89033447 422.60392456 219.20458984 421.2434082 C215.4280827 413.77955593 211.54827493 406.37212743 207.6328125 398.98046875 C204.73026378 393.49995504 201.86476614 388.00033276 199 382.5 C195.36972088 375.53338451 191.72767765 368.57331723 188.0625 361.625 C183.61329394 353.18884305 179.21437208 344.72692038 174.81884766 336.26269531 C171.54274501 329.95737913 168.25218042 323.66011816 164.9375 317.375 C158.73745959 305.61881791 152.60130711 293.82937765 146.45898438 282.04296875 C141.32203971 272.18682333 136.1825433 262.33226287 131 252.5 C124.7809147 240.70122129 118.62282625 228.87067039 112.45898438 217.04296875 C107.32203971 207.18682333 102.1825433 197.33226287 97 187.5 C90.7809147 175.70122129 84.62282625 163.87067039 78.45898438 152.04296875 C73.32203971 142.18682333 68.1825433 132.33226287 63 122.5 C56.7809147 110.70122129 50.62282625 98.87067039 44.45898438 87.04296875 C39.32203971 77.18682333 34.1825433 67.33226287 29 57.5 C24.85479881 49.63577091 20.73291742 41.7595661 16.62792969 33.87426758 C13.95532077 28.74111358 11.27174143 23.61414862 8.5703125 18.49609375 C8.01456543 17.4400293 7.45881836 16.38396484 6.88623047 15.29589844 C5.8130071 13.25706229 4.73661593 11.21988982 3.65673828 9.18457031 C3.1770459 8.2715918 2.69735352 7.35861328 2.203125 6.41796875 C1.56358887 5.20790161 1.56358887 5.20790161 0.91113281 3.97338867 C0 2 0 2 0 0 Z " fill="#000000" transform="translate(6428,495)"/>
<path d="M0 0 C225.39 0 450.78 0 683 0 C677.25200871 29.88955468 677.25200871 29.88955468 674.60253906 42.52172852 C674.29784414 43.98201614 673.99332056 45.44233952 673.68894958 46.9026947 C672.88333963 50.76515247 672.07514363 54.6270641 671.26616001 58.4888165 C670.58671492 61.73321442 669.90849145 64.97786732 669.23020625 68.22250789 C667.63316834 75.86172922 666.03384464 83.50046948 664.43310547 91.13891602 C662.78379078 99.0094073 661.13892205 106.88081915 659.49604058 114.75265557 C658.07698191 121.55115789 656.6550277 128.34905023 655.23075843 135.14646286 C654.38342882 139.1906052 653.53725734 143.23498128 652.69397736 147.27997017 C651.90602064 151.05905468 651.11447735 154.83736971 650.32008553 158.61510658 C650.0289144 160.00284274 649.73904852 161.39085346 649.45055199 162.7791481 C649.05834581 164.66550943 648.66106859 166.55081434 648.26348877 168.43605042 C647.93170561 170.02111814 647.93170561 170.02111814 647.59321976 171.63820744 C647 174 647 174 646 175 C643.71194496 175.10325637 641.42062712 175.13402478 639.13024807 175.1386652 C638.03445116 175.14292853 638.03445116 175.14292853 636.91651693 175.14727798 C634.43745185 175.15568397 631.95843314 175.15689778 629.47935486 175.15821838 C627.6965769 175.16277973 625.91380002 175.16777911 624.13102442 175.17318195 C619.20780624 175.18682123 614.284595 175.19419807 609.36136281 175.20060861 C604.06139073 175.20858726 598.76143321 175.22229369 593.46147156 175.23532104 C584.27086275 175.25711992 575.08025249 175.27525188 565.88963127 175.29092598 C552.60137054 175.31359363 539.31312591 175.3417407 526.02487881 175.37124526 C504.46800898 175.41895934 482.91113259 175.46221314 461.35424805 175.50268555 C440.40795378 175.54202109 419.46166536 175.58344263 398.51538086 175.62768555 C397.22526149 175.63040982 395.93514213 175.63313409 394.60592823 175.63594092 C388.13408001 175.64962007 381.66223188 175.66334041 375.19038379 175.67708123 C321.46026804 175.79110593 267.73013964 175.89790198 214 176 C213.82422833 176.82493265 213.64845667 177.6498653 213.46735859 178.49979591 C209.16953076 198.66988302 204.87004379 218.83961585 200.56876087 239.00896645 C198.48864433 248.76313157 196.40906802 258.51741125 194.33081055 268.27197266 C192.51718676 276.78443577 190.70250142 285.2966718 188.8865959 293.80864847 C187.92714479 298.30620765 186.96818823 302.80387087 186.01050758 307.3018074 C185.10483101 311.55541356 184.19771085 315.80870954 183.28958893 320.06179428 C182.96060088 321.60372394 182.63209326 323.14575621 182.30416679 324.68791199 C179.65285001 337.15407642 176.8250802 349.5696471 174 362 C308.31 362 442.62 362 581 362 C578.74997917 375.50012498 578.74997917 375.50012498 577.69891357 380.348526 C577.34178032 382.00598595 577.34178032 382.00598595 576.97743225 383.69692993 C576.72287766 384.86436737 576.46832306 386.03180481 576.20605469 387.23461914 C575.93254684 388.49998001 575.659039 389.76534088 575.37724304 391.06904602 C574.63369141 394.50861736 573.88663124 397.94741773 573.13885784 401.38607335 C572.34825305 405.02448375 571.56083269 408.66358337 570.77301025 412.30259705 C569.44676041 418.42650881 568.11840737 424.54996112 566.78857422 430.6730957 C565.10070471 438.44481904 563.41605832 446.21723702 561.73255539 453.98990726 C560.26564559 460.76254565 558.79743124 467.53490114 557.32891178 474.30719066 C557.01871365 475.7377993 556.708557 477.16841694 556.39844418 478.59904408 C554.27367117 488.40112339 552.14210475 498.20169037 550 508 C549.8583674 508.64851095 549.71673481 509.29702189 549.57081032 509.96518469 C548.59630857 514.42627333 547.61633128 518.88613274 546.63378906 523.34545898 C546.38237026 524.4953106 546.13095146 525.64516222 545.87191391 526.82985783 C545.63995441 527.87825557 545.40799492 528.92665331 545.16900635 530.00682068 C544.86529806 531.38684344 544.86529806 531.38684344 544.55545425 532.79474545 C544 535 544 535 543 537 C408.69 537.33 274.38 537.66 136 538 C126.43 584.2 116.86 630.4 107 678 C97 726 97 726 96 729 C241.86 729 387.72 729 538 729 C531.34370726 788.90663467 513.6294275 847.06267166 501 906 C272.31 906 43.62 906 -192 906 C-190.87499738 896.99997902 -190.87499738 896.99997902 -189.96047974 892.69151306 C-189.65103204 891.2216863 -189.65103204 891.2216863 -189.33533287 889.72216606 C-189.11010759 888.66908319 -188.88488232 887.61600033 -188.65283203 886.53100586 C-188.41259623 885.39474825 -188.17236042 884.25849064 -187.92484474 883.08780098 C-187.2620105 879.95606906 -186.59621024 876.82498529 -185.92911053 873.69415975 C-185.21199514 870.32505314 -184.4987241 866.95513254 -183.78497314 863.58531189 C-182.39010456 857.00271291 -180.99169748 850.42087047 -179.59212685 843.83926982 C-177.94662932 836.10039468 -176.30492173 828.36071695 -174.66333604 820.62101126 C-170.93427625 803.04016342 -167.19900742 785.46063728 -163.46250808 767.88136935 C-161.92437881 760.64466929 -160.38702946 753.40780365 -158.84985566 746.17090058 C-152.29159797 715.29517176 -145.72691066 684.4208126 -139.15851402 653.5472393 C-139.02099118 652.90083732 -138.88346834 652.25443534 -138.74177814 651.58844543 C-138.4640726 650.28313937 -138.18636661 648.97783341 -137.90866017 647.67252755 C-132.93773645 624.30751038 -127.96974078 600.94187046 -123.00199479 577.57617748 C-122.16698198 573.64871822 -121.33194155 569.72126484 -120.49687761 565.79381645 C-113.81492828 534.3674278 -107.13677592 502.94023569 -100.46484375 471.51171875 C-100.30610071 470.7639551 -100.14735766 470.01619146 -99.98380423 469.24576831 C-98.20444309 460.86402118 -96.42514569 452.48226051 -94.64587402 444.10049438 C-94.4845012 443.3403019 -94.32312838 442.58010941 -94.15686548 441.79688078 C-93.50362946 438.71962395 -92.85039393 435.64236701 -92.19716454 432.56510878 C-84.6238255 396.888333 -77.04796023 361.21210042 -69.45703125 325.5390625 C-69.30269969 324.8137901 -69.14836813 324.0885177 -68.98935986 323.34126735 C-66.19766518 310.22201108 -63.40545337 297.10286487 -60.61300278 283.98376948 C-58.60507867 274.55042107 -56.59731056 265.11703948 -54.58984375 255.68359375 C-54.43640534 254.96256131 -54.28296694 254.24152888 -54.12487888 253.49864697 C-49.16823736 230.20603093 -44.2193668 206.9117708 -39.27523851 183.61649561 C-38.75402097 181.16069676 -38.23277864 178.70490317 -37.71152878 176.24911118 C-33.18575279 154.92656554 -33.18575279 154.92656554 -28.66235352 133.60351562 C-21.85482807 101.50450904 -15.02933737 69.40944948 -8.15756869 37.32412601 C-7.65547527 34.9794672 -7.15361116 32.63475942 -6.65179634 30.29004097 C-5.86962451 26.63571925 -5.08669683 22.9815603 -4.30314183 19.32753491 C-4.01539953 17.98525372 -3.72787637 16.64292553 -3.44058681 15.30054736 C-3.04750511 13.46417673 -2.65346879 11.62801052 -2.25938416 9.79185486 C-2.03905486 8.76399337 -1.81872557 7.73613188 -1.59171963 6.67712307 C-1.09790915 4.44297136 -0.55493946 2.21975784 0 0 Z " fill="#000000" transform="translate(2477,498)"/>
<path d="M0 0 C1.56361238 0.17894652 3.12725255 0.35765031 4.69091797 0.53613281 C64.15629176 7.42497773 126.57240384 21.51169715 176 57 C176.96808594 57.69480469 177.93617188 58.38960937 178.93359375 59.10546875 C198.61260597 73.5640408 215.8964314 90.00757293 230 110 C230.40766602 110.57363281 230.81533203 111.14726563 231.23535156 111.73828125 C255.64620979 146.55751393 267.63647881 187.77345326 269 230 C269.061875 231.59134766 269.061875 231.59134766 269.125 233.21484375 C269.58307871 256.37644841 265.67705809 279.20223982 262 302 C175.87 302 89.74 302 1 302 C1 290.78 1 279.56 1 268 C-1.51060532 247.5187461 -7.92218806 227.51380004 -22 212 C-23.10794922 210.75283203 -23.10794922 210.75283203 -24.23828125 209.48046875 C-45.88810653 186.4133063 -79.11790802 178.30626107 -109.68896484 176.87402344 C-171.4686695 175.09958364 -224.44157675 197.00744101 -269 239 C-269.7321875 239.68964844 -270.464375 240.37929688 -271.21875 241.08984375 C-275.68238407 245.42063157 -279.64751239 250.05939049 -283.53125 254.9140625 C-285.26101741 257.07627176 -287.00549025 259.21258742 -288.78125 261.3359375 C-345.83644609 330.14617649 -371.1564037 425.94312557 -394.1875 592.5625 C-394.18689575 593.34958344 -394.1862915 594.13666687 -394.18566895 594.94760132 C-394.15917291 607.71949785 -393.76405978 620.33280444 -392 633 C-391.87109375 633.93021973 -391.7421875 634.86043945 -391.609375 635.81884766 C-386.12416005 673.77729697 -371.80659383 711.89732286 -340.953125 736.421875 C-322.23757348 749.92314351 -300.84315917 758.62814075 -278 762 C-277.32420898 762.10151367 -276.64841797 762.20302734 -275.95214844 762.30761719 C-227.9825987 769.22273645 -173.59994407 761.10127456 -133.90185547 731.83837891 C-132.25057241 730.57929409 -130.6213115 729.29743192 -129 728 C-128.41138184 727.52949219 -127.82276367 727.05898437 -127.21630859 726.57421875 C-105.7287119 709.18687069 -90.78047995 687.33175561 -78.8125 662.625 C-78.43279053 661.84882324 -78.05308105 661.07264648 -77.66186523 660.27294922 C-73.45726889 651.3605349 -70.44505118 642.35085321 -67 633 C19.79 633 106.58 633 196 633 C194.8721865 642.02250804 194.8721865 642.02250804 193.65234375 646.625 C193.38123779 647.64867676 193.11013184 648.67235352 192.83081055 649.72705078 C192.53601807 650.80712402 192.24122559 651.88719727 191.9375 653 C191.62659424 654.14065918 191.31568848 655.28131836 190.99536133 656.45654297 C176.76823142 707.79900382 153.25666102 755.81436499 118 796 C117.401875 796.69738281 116.80375 797.39476562 116.1875 798.11328125 C114.47993352 800.09586444 112.74566149 802.0508565 111 804 C110.15308594 804.95132813 109.30617188 805.90265625 108.43359375 806.8828125 C97.26072487 819.2962643 85.17264533 830.49363101 71.86279297 840.57861328 C69.87453384 842.09573578 67.90726083 843.63756732 65.94140625 845.18359375 C49.88907384 857.74596549 32.81735418 868.13764393 15 878 C13.77168457 878.68811768 13.77168457 878.68811768 12.51855469 879.39013672 C-59.97286761 919.79733859 -146.83988398 936.44941 -229 941 C-229.75422241 941.04236786 -230.50844482 941.08473572 -231.28552246 941.12838745 C-246.44234768 941.95938785 -261.5720402 942.20228279 -276.75 942.1875 C-277.90708466 942.18689575 -279.06416931 942.1862915 -280.25631714 942.18566895 C-375.91633588 942.05080796 -479.27841954 926.14186119 -573 850 C-573.59458008 849.43265137 -574.18916016 848.86530273 -574.80175781 848.28076172 C-588.16842529 835.4621345 -599.13462262 821.65217737 -609 806 C-609.40573242 805.35756348 -609.81146484 804.71512695 -610.22949219 804.05322266 C-622.59644944 784.25726451 -631.74664013 763.14884008 -639 741 C-639.31952637 740.02482422 -639.63905273 739.04964844 -639.96826172 738.04492188 C-647.23834271 715.4404045 -651.62360764 692.30229761 -654.3125 668.75 C-654.43460342 667.68608536 -654.43460342 667.68608536 -654.55917358 666.60067749 C-656.48088772 649.55175741 -657.21075121 632.52642909 -657.1875 615.375 C-657.18689575 614.53683746 -657.1862915 613.69867493 -657.18566895 612.83511353 C-657.02426551 529.31769261 -638.95956124 445.07096471 -601 343 C-600.56655273 341.9692334 -600.13310547 340.9384668 -599.68652344 339.87646484 C-572.4750792 275.63449489 -536.01746155 216.62863116 -489 165 C-488.25363281 164.16082031 -487.50726562 163.32164062 -486.73828125 162.45703125 C-480.47627982 155.48723688 -473.92809051 148.82203484 -467.3125 142.1875 C-466.42143555 141.29184326 -465.53037109 140.39618652 -464.61230469 139.47338867 C-459.56793724 134.44075449 -454.41869203 129.62494806 -449 125 C-447.82020599 123.96644944 -446.64179469 122.93131818 -445.46484375 121.89453125 C-420.59706476 100.11906424 -393.77282993 80.3415529 -365 64 C-364.21641113 63.55479004 -363.43282227 63.10958008 -362.62548828 62.65087891 C-300.50203618 27.60049771 -232.7198288 7.80553551 -162.02233887 0.22003174 C-160.02726354 0.00296629 -158.03362633 -0.22718769 -156.04003906 -0.45751953 C-105.27115312 -6.21720134 -50.72970328 -6.02113417 0 0 Z " fill="#000000" transform="translate(1104,480)"/>
<path d="M0 0 C92.07 0 184.14 0 279 0 C289.42096752 100.73601934 289.42096752 100.73601934 293.46978951 140.78856659 C294.21424067 148.15076262 294.95982354 155.51284368 295.70561569 162.87490396 C296.88797714 174.5467285 298.0697195 186.21861559 299.25095851 197.89055377 C301.11933076 216.35210182 302.98941939 234.81347573 304.85998687 253.27480147 C305.58691564 260.44919349 306.31379544 267.62359048 307.04067993 274.79798698 C307.12129245 275.59363441 307.20190496 276.38928184 307.28496028 277.2090398 C309.18267728 295.93961703 311.07996174 314.67023806 312.97705078 333.40087891 C313.05958008 334.2157156 313.14210938 335.03055229 313.22713956 335.870081 C315.16284885 354.98198533 317.09821248 374.09392462 319.03289795 393.20593262 C319.11683621 394.03512517 319.20077447 394.86431772 319.28725631 395.71863732 C319.96469046 402.41076061 320.6421155 409.10288482 321.31953733 415.79500935 C324.11126655 443.37388619 326.90463049 470.95259705 329.69987081 498.53111826 C330.09366461 502.4164027 330.48743706 506.30168931 330.88119507 510.18697739 C330.99737554 511.33334927 330.99737554 511.33334927 331.1159031 512.50288018 C332.35981283 524.77727439 333.6019531 537.05184704 334.8433874 549.32649183 C336.08511007 561.60369312 337.32855386 573.88071906 338.5737955 586.15756394 C339.24764262 592.80153412 339.92062613 599.4455898 340.59152031 606.08985901 C341.20470219 612.16241718 341.82010715 618.23474569 342.43732202 624.30689524 C342.660671 626.5081856 342.88318477 628.70956088 343.10480082 630.91102637 C343.40492541 633.89118916 343.70802631 636.87103443 344.01190186 639.85081673 C344.0981499 640.71445507 344.18439795 641.5780934 344.27325958 642.4679026 C344.67361523 646.36389909 345.13037283 650.17383285 346 654 C346.32572998 653.39865234 346.65145996 652.79730469 346.98706055 652.17773438 C347.44894775 651.32501953 347.91083496 650.47230469 348.38671875 649.59375 C348.9062915 648.63452637 349.42586426 647.67530273 349.96118164 646.68701172 C351.12829479 644.53236668 352.29545089 642.37774491 353.46264648 640.22314453 C356.42139118 634.76127256 359.37958624 629.29910538 362.3359375 623.8359375 C368.03356695 613.3087742 373.74635367 602.79018139 379.48291016 592.28417969 C385.34856178 581.5372139 391.17331629 570.76812645 397 560 C403.80766272 547.41895447 410.62457374 534.8432785 417.48071289 522.28857422 C421.16805075 515.53339546 424.83731455 508.76857311 428.5 502 C432.65279712 494.32570984 436.8177919 486.65830225 441 479 C447.36195575 467.34881082 453.682438 455.67530449 460 444 C466.8084426 431.4175132 473.62670783 418.84071486 480.48291016 406.28417969 C486.34856178 395.5372139 492.17331629 384.76812645 498 374 C504.8084426 361.4175132 511.62670783 348.84071486 518.48291016 336.28417969 C524.34856178 325.5372139 530.17331629 314.76812645 536 304 C542.80766272 291.41895447 549.62457374 278.8432785 556.48071289 266.28857422 C560.16805075 259.53339546 563.83731455 252.76857311 567.5 246 C571.65279712 238.32570984 575.8177919 230.65830225 580 223 C586.36195575 211.34881082 592.682438 199.67530449 599 188 C605.8084426 175.4175132 612.62670783 162.84071486 619.48291016 150.28417969 C625.34856178 139.5372139 631.17331629 128.76812645 637 118 C643.80766272 105.41895447 650.62457374 92.8432785 657.48071289 80.28857422 C661.16805075 73.53339546 664.83731455 66.76857311 668.5 60 C672.65279711 52.32570986 676.81778433 44.65829812 681 37 C685.40975765 28.92419235 689.80412275 20.84015824 694.1875 12.75 C694.75275391 11.70714844 695.31800781 10.66429687 695.90039062 9.58984375 C696.42181641 8.62691406 696.94324219 7.66398437 697.48046875 6.671875 C697.94348389 5.8169043 698.40649902 4.96193359 698.88354492 4.08105469 C699.6079882 2.73070383 700.31468759 1.37062482 701 0 C784.16 0 867.32 0 953 0 C951.54877547 3.62806134 950.12455815 6.74228784 948.234375 10.11328125 C947.68152832 11.10110596 947.12868164 12.08893066 946.55908203 13.10668945 C945.96208496 14.16460693 945.36508789 15.22252441 944.75 16.3125 C944.12593262 17.42262451 943.50186523 18.53274902 942.85888672 19.67651367 C938.11630308 28.08587771 933.27753894 36.43691436 928.39355469 44.76489258 C923.87329446 52.47854242 919.42511343 60.23158834 915 68 C910.04650554 76.69418163 905.0562137 85.36497675 900 94 C894.9681021 102.5951729 889.99610876 111.22312222 885.0625 119.875 C878.03396493 132.20025196 870.95759566 144.49722067 863.85888672 156.78222656 C860.73675395 162.18670645 857.61858796 167.59347412 854.5 173 C853.25001878 175.1666775 852.00001879 177.33334417 850.75 179.5 C849.821875 181.10875 849.821875 181.10875 848.875 182.75 C828.25000001 218.49999999 828.25000001 218.49999999 826.37524414 221.74951172 C825.1243552 223.91776264 823.87354148 226.08605697 822.62280273 228.25439453 C819.51201665 233.64717915 816.39995762 239.03922093 813.28515625 244.4296875 C806.46497363 256.23629484 799.6767674 268.06027 792.92263794 279.90472412 C787.76583392 288.94471708 782.54456231 297.94525321 777.28662109 306.92675781 C772.83083656 314.54905778 768.43602854 322.20531311 764.0625 329.875 C757.03396493 342.20025196 749.95759566 354.49722067 742.85888672 366.78222656 C739.73675395 372.18670645 736.61858796 377.59347412 733.5 383 C732.25001878 385.1666775 731.00001879 387.33334417 729.75 389.5 C729.13125 390.5725 728.5125 391.645 727.875 392.75 C707.25000001 428.49999999 707.25000001 428.49999999 705.37524414 431.74951172 C704.1243552 433.91776264 702.87354148 436.08605697 701.62280273 438.25439453 C698.51201665 443.64717915 695.39995762 449.03922093 692.28515625 454.4296875 C685.46497363 466.23629484 678.6767674 478.06027 671.92263794 489.90472412 C666.76583392 498.94471708 661.54456231 507.94525321 656.28662109 516.92675781 C651.83083656 524.54905778 647.43602854 532.20531311 643.0625 539.875 C636.03396493 552.20025196 628.95759566 564.49722067 621.85888672 576.78222656 C618.73675395 582.18670645 615.61858796 587.59347412 612.5 593 C611.25001878 595.1666775 610.00001879 597.33334417 608.75 599.5 C608.13125 600.5725 607.5125 601.645 606.875 602.75 C586.25000001 638.49999998 586.25000001 638.49999998 584.37524414 641.74951172 C583.1243552 643.91776264 581.87354148 646.08605697 580.62280273 648.25439453 C577.51201665 653.64717915 574.39995762 659.03922093 571.28515625 664.4296875 C564.46497363 676.23629484 557.6767674 688.06027 550.92263794 699.90472412 C545.76583392 708.94471708 540.54456231 717.94525321 535.28662109 726.92675781 C530.83083656 734.54905778 526.43602854 742.20531311 522.0625 749.875 C515.03396493 762.20025196 507.95759566 774.49722067 500.85888672 786.78222656 C497.73675395 792.18670645 494.61858796 797.59347412 491.5 803 C490.25001878 805.1666775 489.00001879 807.33334417 487.75 809.5 C487.13125 810.5725 486.5125 811.645 485.875 812.75 C479 824.66666667 472.125 836.58333333 465.25 848.5 C464.3211499 850.11007935 464.3211499 850.11007935 463.37353516 851.75268555 C462.12858718 853.91049803 460.8834711 856.06821353 459.63818359 858.22583008 C456.43447349 863.77716592 453.2340637 869.33036541 450.0390625 874.88671875 C449.38357422 876.02560547 448.72808594 877.16449219 448.05273438 878.33789062 C446.8211516 880.47787488 445.59058114 882.61844226 444.36132812 884.75976562 C443.23398253 886.71765283 442.07842486 888.65964264 440.89153194 890.58201504 C439.47760818 893.13696537 438.57464739 895.12519718 437.68702793 897.83059025 C435.97948448 902.37714882 434.0094709 906.11288706 430 909 C421.56461502 911.75382366 412.19227842 910.93430175 403.42342651 910.74098432 C399.72417637 910.67596287 396.02529895 910.69814412 392.32563782 910.70951843 C385.92255282 910.71736939 379.52176725 910.6704722 373.11926079 910.58595085 C363.8628299 910.46383383 354.60750637 910.42495926 345.3503573 910.40613098 C330.33051662 910.37333316 315.31190062 910.27359917 300.29272461 910.1315918 C285.70652376 909.99382198 271.12065601 909.88768845 256.53393555 909.82397461 C255.63422739 909.82003376 254.73451924 909.8160929 253.8075472 909.81203263 C249.29379549 909.7924565 244.78004142 909.77350102 240.26628578 909.75485408 C202.84332594 909.5994523 165.42175848 909.33534494 128 909 C125.31705686 892.57417092 122.82148539 876.1316825 120.50537109 859.65039062 C120.17512456 857.31294879 119.84467496 854.97553564 119.51404285 852.63814831 C118.61909871 846.30725541 117.72698314 839.97596687 116.83538795 833.64460158 C115.97410554 827.5301313 115.11017749 821.41603453 114.24654111 815.30189639 C112.48881567 802.85749733 110.73321116 790.41279996 108.97885132 777.96792603 C107.23063729 765.56670657 105.48138782 753.16563383 103.73086548 740.76473999 C103.62090795 739.98578494 103.51095042 739.2068299 103.39766084 738.40427015 C102.83985053 734.45269777 102.28202299 730.50112782 101.72418916 726.54955876 C96.77503536 691.49056803 91.82993677 656.43100582 86.88572198 621.37131828 C84.76091845 606.30429918 82.63563726 591.23734748 80.51025391 576.17041016 C80.15556483 573.65598267 79.80087587 571.14155517 79.44618702 568.62712765 C78.57951056 562.48318323 77.71282599 556.33923996 76.84613919 550.195297 C75.47787683 540.49567298 74.10962963 530.79604683 72.74139273 521.09641922 C72.40272482 518.69555891 72.06405528 516.29469884 71.72538412 513.893839 C69.87066167 500.74559009 68.01607459 487.59732211 66.16183472 474.44900513 C57.40609446 412.36277759 48.63876268 350.27820003 39.859375 288.1953125 C39.74053429 287.35493355 39.62169358 286.5145546 39.49925163 285.64870963 C34.55590164 250.69200764 29.61157119 215.73544436 24.66609923 180.77904251 C23.66873897 173.72933283 22.67141128 166.67961855 21.67415428 159.62989426 C21.56631145 158.867542 21.45846861 158.10518975 21.34735782 157.31973591 C20.91669997 154.2753632 20.48604349 151.23099029 20.05539383 148.18661642 C18.93550777 140.26985906 17.81553319 132.35311426 16.69519806 124.43642044 C16.40939844 122.41680032 16.1236009 120.39717991 15.83780517 118.37755924 C15.64965424 117.04797593 15.46149807 115.71839336 15.27333663 114.38881153 C14.27061812 107.30324424 13.26861168 100.21757758 12.26850319 93.13164139 C11.91280183 90.61159451 11.55709593 88.09154828 11.2013855 85.57150269 C11.02528374 84.32376745 10.84918198 83.07603221 10.6677438 81.79048681 C9.5903109 74.1621343 8.50747078 66.53457636 7.42019455 58.90762166 C6.56717212 52.92333157 5.71690438 46.93865408 4.86846908 40.95371195 C4.36052194 37.37176618 3.8510826 33.79004698 3.33798873 30.20883453 C2.77316564 26.26652392 2.21477679 22.32331657 1.65687561 18.38002014 C1.48820594 17.21048534 1.31953628 16.04095054 1.14575541 14.83597529 C0.99383655 13.75504394 0.8419177 12.6741126 0.68539524 11.56042576 C0.55226824 10.62605137 0.41914125 9.69167699 0.2819801 8.72898823 C-0.01723246 5.83322514 0 2.91118052 0 0 Z " fill="#000000" transform="translate(4498,495)"/>
<path d="M0 0 C268.62 0 537.24 0 814 0 C812.87499359 11.25006412 812.87499359 11.25006412 811.73651123 16.66642761 C811.48152359 17.89223038 811.22653595 19.11803314 810.96382141 20.38098145 C810.68268609 21.70607578 810.40144795 23.03114831 810.12011719 24.35620117 C809.8222195 25.77837406 809.52478285 27.20064358 809.22776794 28.6230011 C808.4243895 32.46367727 807.61455161 36.302965 806.80346203 40.14201903 C805.9492836 44.19036479 805.10099974 48.23994562 804.25201416 52.28938293 C802.82298474 59.10144599 801.39015054 65.91269914 799.95458984 72.72338867 C797.94679847 82.24892487 795.94585417 91.77588937 793.94632101 101.30316198 C792.37702262 108.77921455 790.80586202 116.25487597 789.234375 123.73046875 C789.06919845 124.51629137 788.90402189 125.30211399 788.73383999 126.11174941 C787.77220667 130.68607602 786.80959041 135.2601941 785.84568977 139.8340435 C785.42274685 141.84164425 785.00049778 143.84939114 784.57829285 145.85714722 C782.10505811 157.58357915 779.54602739 169.28827399 777 181 C636.915 181.495 636.915 181.495 494 182 C484.76 225.56 475.52 269.12 466 314 C456.12731422 360.51822262 456.12731422 360.51822262 451.32443237 383.13571167 C450.39152992 387.52894012 449.4587039 391.92218479 448.52587891 396.31542969 C438.97560716 441.29318378 429.41709037 486.2691802 419.85324097 531.24404907 C410.89140004 573.38818374 401.9396496 615.53445473 392.99216795 657.68164015 C382.87332367 705.34651217 372.74963982 753.01035028 362.61600876 800.67208099 C362.1925796 802.66360895 361.76915593 804.65513807 361.34573364 806.64666748 C360.79880652 809.21907637 360.2518725 811.7914838 359.70493126 814.36388969 C359.17293513 816.86600875 358.64095381 819.36813096 358.10898781 821.87025642 C356.84224124 827.82817073 355.57508523 833.78599733 354.30697632 839.74362183 C352.12682964 849.98741859 349.94928989 860.23173009 347.78556728 870.47901058 C346.84707038 874.92286603 345.90666204 879.36631597 344.96608925 883.80973244 C344.52649511 885.8892717 344.08788709 887.96901969 343.65032005 890.04898643 C343.05487198 892.87928733 342.45615529 895.7088779 341.85668945 898.53833008 C341.68186098 899.37385973 341.50703251 900.20938938 341.3269062 901.07023811 C340.11388311 906.77223378 340.11388311 906.77223378 339 909 C254.85 909 170.7 909 84 909 C85.30922396 901.14465625 86.68728541 893.38067975 88.34057617 885.6015625 C88.56779106 884.52238839 88.79500595 883.44321428 89.02910614 882.33133793 C89.78127613 878.76203659 90.5370882 875.19351722 91.29296875 871.625 C91.83213506 869.07063455 92.37109592 866.51622572 92.90986633 863.96177673 C94.21194301 857.79054948 95.51685358 851.6199248 96.82280999 845.44951755 C97.8910223 840.40211543 98.95807847 835.35447006 100.02441406 830.30667114 C110.25481232 781.87953602 120.54695669 733.46562963 130.87110329 685.05839539 C136.78505432 657.32895024 142.68218097 629.59593043 148.57750511 601.86252022 C149.00017001 599.87420022 149.42284988 597.88588339 149.84553528 595.89756775 C165.44586411 522.51348882 181.02434949 449.12476991 198.7095499 365.81463277 C201.67389156 351.85040917 204.63840938 337.88622296 207.60305023 323.92206287 C209.40707971 315.42461384 211.21095713 306.92713255 213.01460159 298.42960179 C214.25026606 292.60805957 215.486115 286.78655652 216.72208512 280.96507919 C217.42410102 277.65852304 218.12602594 274.35194767 218.82777023 271.04533386 C225.1987157 241.02599768 231.60358743 211.01393589 238 181 C146.92 181 55.84 181 -38 181 C-36.67857462 173.07144774 -35.28519242 165.22542003 -33.63671875 157.36791992 C-33.29461617 155.72289238 -33.29461617 155.72289238 -32.94560242 154.04463196 C-32.1952267 150.43942196 -31.44142102 146.83493888 -30.6875 143.23046875 C-30.15362675 140.66982245 -29.61993912 138.10913745 -29.08642578 135.54841614 C-27.96499838 130.16759932 -26.84175581 124.78716405 -25.71728516 119.40698242 C-24.58519705 113.99031354 -23.45455297 108.57334648 -22.32568359 103.15600586 C-22.12001314 102.16902562 -22.12001314 102.16902562 -21.91018772 101.16210639 C-21.77332019 100.50529919 -21.63645266 99.84849199 -21.49543762 99.17178154 C-16.33151734 74.39117639 -11.15267594 49.61357886 -5.9085083 24.84981728 C-5.47300141 22.79199148 -5.03837582 20.73397896 -4.60467529 18.67577171 C-4.01520725 15.88002504 -3.42222096 13.08504954 -2.828125 10.2902832 C-2.65586395 9.47018328 -2.48360291 8.65008335 -2.30612183 7.80513191 C-1.11451827 2.22903655 -1.11451827 2.22903655 0 0 Z " fill="#000000" transform="translate(3242,495)"/>
<path d="M0 0 C85.8 0 171.6 0 260 0 C258.87500297 11.24997028 258.87500297 11.24997028 257.79516602 16.33087158 C257.55231463 17.48640785 257.30946325 18.64194412 257.05925274 19.83249664 C256.66060623 21.68899967 256.66060623 21.68899967 256.25390625 23.58300781 C255.96818596 24.93248706 255.68293897 26.2820666 255.39812183 27.63173676 C254.62212122 31.30237825 253.83952562 34.97158573 253.05577111 38.64057827 C252.21781641 42.5690658 251.38608935 46.49887189 250.55363464 50.42852783 C249.12329266 57.17647476 247.68912706 63.92359947 246.25228882 70.67016602 C244.17109591 80.4423774 242.09594689 90.21586458 240.02238834 99.98969841 C236.96681375 114.39197502 233.90808729 128.79357912 230.84647954 143.19457436 C226.96636606 161.44571231 223.09442147 179.69855852 219.23046875 197.953125 C218.84569209 199.77079659 218.84569209 199.77079659 218.45314217 201.62518883 C217.44074477 206.40773269 216.42837484 211.19028236 215.41608906 215.97284985 C212.65987521 228.99410062 209.90053132 242.01468768 207.140625 255.03515625 C206.89130659 256.21138361 206.64198818 257.38761097 206.38511467 258.59948158 C199.48910087 291.13235404 192.58719819 323.66397781 185.68551636 356.19564819 C176.20136894 400.9000703 166.72357919 445.60583715 157.25 490.3125 C157.08359056 491.09779886 156.91718112 491.88309772 156.74572897 492.69219351 C153.53125172 507.86156523 150.31685869 523.0309548 147.10255432 538.20036316 C140.89753877 567.48394835 134.69182694 596.76738595 128.48596144 626.05079103 C126.17286025 636.96554386 123.85981891 647.88030938 121.54683065 658.79508615 C120.06248048 665.79959081 118.57811763 672.80409279 117.09375 679.80859375 C116.93023828 680.5801809 116.76672655 681.35176805 116.59825993 682.14673662 C111.67515868 705.37806839 106.75132896 728.60924568 101.82704449 751.84032667 C100.53431082 757.93902321 99.24162603 764.03773011 97.94897461 770.13644409 C97.76804543 770.99006566 97.58711626 771.84368723 97.40070438 772.72317612 C96.49512193 776.99571235 95.58954616 781.26824999 94.68397522 785.54078865 C92.77053027 794.56849011 90.85692877 803.59615836 88.94309998 812.62377846 C87.64485373 818.7477365 86.34683114 824.87174192 85.04893494 830.99577415 C84.28200272 834.61440236 83.51493804 838.2330024 82.74755859 841.8515358 C79.93748052 855.10235869 77.12957664 868.35356294 74.359375 881.61279297 C74.1647744 882.54299098 73.9701738 883.47318899 73.76967621 884.43157482 C72.90723403 888.554534 72.04716039 892.67794595 71.19299316 896.80262756 C70.90806453 898.16783819 70.62303821 899.53302844 70.33789062 900.89819336 C70.10026001 902.0441246 69.86262939 903.19005585 69.61779785 904.37071228 C69 907 69 907 68 909 C-17.8 909 -103.6 909 -192 909 C-190.7846697 901.10035308 -189.54947834 893.35498456 -187.87475586 885.56469727 C-187.67020688 884.59870668 -187.4656579 883.6327161 -187.25491047 882.63745308 C-186.57830951 879.44636665 -185.89658232 876.25639868 -185.21484375 873.06640625 C-184.72605467 870.76600424 -184.23759928 868.4655313 -183.74945068 866.16499329 C-182.70073836 861.22598105 -181.64977222 856.28745591 -180.59701538 851.3493042 C-179.05184869 844.10130409 -177.51069932 836.85245565 -175.97080195 829.60333443 C-175.2486549 826.20381502 -174.52636186 822.80432663 -173.80403137 819.40484619 C-173.6597654 818.72588964 -173.51549943 818.04693309 -173.36686176 817.3474021 C-172.33319049 812.48307485 -171.29876352 807.61890866 -170.26396179 802.75482178 C-166.42276479 784.69900421 -162.58958811 766.64150844 -158.765625 748.58203125 C-158.51486206 747.39778942 -158.26409912 746.21354759 -158.0057373 744.99341965 C-156.99410159 740.21577063 -155.98252887 735.43810828 -154.97105408 730.66042519 C-152.12281186 717.20689608 -149.27254317 703.7537965 -146.421875 690.30078125 C-146.16024567 689.06606709 -145.89861633 687.83135292 -145.62905884 686.55922318 C-139.23674795 656.39261464 -132.83715909 626.22755028 -126.4375 596.0625 C-116.36924817 548.60538496 -106.3069236 501.147017 -96.25 453.6875 C-96.08359056 452.90220114 -95.91718112 452.11690228 -95.74572897 451.30780649 C-92.53125172 436.13843477 -89.31685869 420.9690452 -86.10255432 405.79963684 C-81.56326836 384.37719785 -77.02368415 362.95482208 -72.4838171 341.53250623 C-71.98413635 339.17465512 -71.48445753 336.8168036 -70.98477936 334.45895195 C-67.6655392 318.79632202 -64.34625077 303.13370232 -61.02681351 287.47111416 C-59.37201686 279.66303984 -57.71725239 271.8549587 -56.0625 264.046875 C-55.89848662 263.27296771 -55.73447325 262.49906043 -55.56548977 261.7017014 C-50.72668381 238.86944698 -45.8892812 216.0368956 -41.05287361 193.20413303 C-39.79787211 187.27929869 -38.54276862 181.35448595 -37.28759766 175.4296875 C-37.11108358 174.59648578 -36.93456951 173.76328405 -36.75270653 172.90483379 C-35.86797685 168.72865223 -34.98323346 164.55247357 -34.09848022 160.376297 C-32.4156143 152.43281285 -30.73294383 144.48928741 -29.05078125 136.5456543 C-28.57051372 134.27782984 -28.09024207 132.01000625 -27.60997009 129.74218273 C-27.19016121 127.75974609 -26.77043114 125.77729275 -26.35070801 123.79483795 C-17.60982316 82.52068013 -8.80238531 41.26118112 0 0 Z " fill="#000000" transform="translate(4143,495)"/>
</svg>
